<svg>
    <symbol id="voice" width="53" height="71" viewBox="0 0 53 71" fill="none"
        xmlns="http://www.w3.org/2000/svg">
        <path
            d="M26.4141 44.505C23.2695 44.505 20.5967 43.4233 18.3955 41.2598C16.1943 39.0964 15.0938 36.4694 15.0938 33.3787V11.1262C15.0938 8.03562 16.1943 5.40859 18.3955 3.24516C20.5967 1.08172 23.2695 0 26.4141 0C29.5586 0 32.2314 1.08172 34.4326 3.24516C36.6338 5.40859 37.7344 8.03562 37.7344 11.1262V33.3787C37.7344 36.4694 36.6338 39.0964 34.4326 41.2598C32.2314 43.4233 29.5586 44.505 26.4141 44.505ZM26.4141 70.4662C24.3301 70.4662 22.6406 68.7768 22.6406 66.6928V62.5675C22.6406 60.5611 21.1429 58.8991 19.2009 58.3947C14.1795 57.0904 9.91749 54.4385 6.41484 50.439C2.98545 46.5231 0.931076 42.0906 0.251729 37.1412C-0.0316665 35.0766 1.68943 33.3787 3.77344 33.3787C5.85745 33.3787 7.49931 35.0848 7.90074 37.1298C8.59663 40.6747 10.3189 43.797 13.0674 46.4966C16.7453 50.1139 21.1941 51.9225 26.4141 51.9225C31.634 51.9225 36.0841 50.1139 39.7645 46.4966C42.5112 43.797 44.2322 40.6747 44.9276 37.1298C45.3288 35.0848 46.9707 33.3787 49.0547 33.3787C51.1387 33.3787 52.8598 35.0766 52.5764 37.1412C51.897 42.0906 49.8427 46.5231 46.4133 50.439C42.9106 54.4385 38.6486 57.0904 33.6272 58.3947C31.6853 58.8991 30.1875 60.5611 30.1875 62.5675V66.6928C30.1875 68.7768 28.4981 70.4662 26.4141 70.4662ZM26.4141 37.0875C27.4832 37.0875 28.38 36.7315 29.1045 36.0194C29.8265 35.3098 30.1875 34.4296 30.1875 33.3787V11.1262C30.1875 10.0754 29.8265 9.19399 29.1045 8.48191C28.38 7.7723 27.4832 7.4175 26.4141 7.4175C25.3449 7.4175 24.4494 7.7723 23.7274 8.48191C23.0029 9.19399 22.6406 10.0754 22.6406 11.1262V33.3787C22.6406 34.4296 23.0029 35.3098 23.7274 36.0194C24.4494 36.7315 25.3449 37.0875 26.4141 37.0875Z"
            fill="white" fill-opacity="0.8" />
    </symbol>
    <symbol id="paused" width="31" height="71" viewBox="0 0 31 71" fill="none"
        xmlns="http://www.w3.org/2000/svg">
        <rect width="9" height="71" rx="4" fill="white" fill-opacity="0.8" />
        <rect x="22" width="9" height="71" rx="4" fill="white" fill-opacity="0.8" />
    </symbol>
    <symbol id="back" width="13" height="19" viewBox="0 0 13 19" fill="none"
        xmlns="http://www.w3.org/2000/svg">
        <path d="M11.0403 19L0 9.5L11.0403 0L13 1.68625L3.91932 9.5L13 17.3138L11.0403 19Z"
            fill="#8585AE" />
    </symbol>
    <symbol id="edit" width="20" height="19" viewBox="0 0 20 19" fill="none"
        xmlns="http://www.w3.org/2000/svg">
        <path
            d="M2.39706 16.751H3.89864L13.1494 8.12598L11.6479 6.72598L2.39706 15.351V16.751ZM17.7346 6.67598L13.1762 2.47598L14.6778 1.07598C15.089 0.692643 15.5941 0.500977 16.1933 0.500977C16.7918 0.500977 17.2966 0.692643 17.7078 1.07598L19.2094 2.47598C19.6205 2.85931 19.835 3.32198 19.8529 3.86398C19.8708 4.40531 19.6741 4.86764 19.263 5.25098L17.7346 6.67598ZM16.1794 8.15098L4.81031 18.751H0.251953V14.501L11.621 3.90098L16.1794 8.15098Z"
            fill="#8585AE" />
    </symbol>
    <symbol id="delete" width="36" height="36" viewBox="0 0 36 36" fill="none"
        xmlns="http://www.w3.org/2000/svg">
        <path
            d="M11.0894 23.5573C11.0894 24.4893 12.0699 25.2519 13.2683 25.2519H21.9836C23.182 25.2519 24.1625 24.4893 24.1625 23.5573V13.3893H11.0894V23.5573ZM25.2519 10.8473H21.4389L20.3495 10H14.9024L13.813 10.8473H10V12.542H25.2519V10.8473Z"
            fill="#8484AC" />
    </symbol>
</svg>