<svg width="36" height="25" viewBox="0 0 36 25" fill="none" xmlns="http://www.w3.org/2000/svg">
<path d="M18 2.49997C11.2474 0.57068 8.21702 0.502507 1.72745 2.29545C1.29709 2.41435 1 2.8078 1 3.25428V22.1743C1 22.8386 1.63592 23.3176 2.27769 23.1457C8.39398 21.508 11.4411 21.626 18 23.5M18 2.49997V23.5M18 2.49997C24.7526 0.570683 27.783 0.502555 34.2726 2.2955C34.7029 2.4144 35 2.80785 35 3.25433V22.1743C35 22.8387 34.3641 23.3176 33.7223 23.1458C27.606 21.508 24.5589 21.626 18 23.5M20.5 5.50006C25.5 4.50006 27.5 4.50006 33 5.50006M20.5 9.50006C25.5 8.50006 27.5 8.50006 33 9.50006M20.5 13.5001C25.5 12.5001 27.5 12.5001 33 13.5001M20.5 17.5001C25.5 16.5001 27.5 16.5001 33 17.5001" stroke="#090910" stroke-width="2" stroke-linejoin="round"/>
</svg>
