<svg>
    <symbol id="voice-page" width="21" height="21" viewBox="0 0 21 21" fill="none"
        xmlns="http://www.w3.org/2000/svg">
        <g opacity="0.75">
            <mask id="path-1-inside-1_693_1444" fill="white">
                <path fill-rule="evenodd" clip-rule="evenodd"
                    d="M21 10.5175C19.7086 11.8045 17.9272 12.6 15.96 12.6C12.0167 12.6 8.82002 9.40334 8.82002 5.46002C8.82002 3.28729 9.7905 1.34123 11.3216 0.0316736C11.0505 0.0106884 10.7765 0 10.5 0C4.70101 0 0 4.70101 0 10.5C0 16.299 4.70101 21 10.5 21C16.2932 21 20.9905 16.3085 21 10.5175Z" />
            </mask>
            <path
                d="M21 10.5175L23 10.5208C23.0013 9.7119 22.5153 8.98186 21.7685 8.67105C21.0217 8.36025 20.1612 8.52989 19.5882 9.10087L21 10.5175ZM11.3216 0.0316736L12.6216 1.55158C13.2365 1.02566 13.4739 0.18104 13.2231 -0.588251C12.9723 -1.35754 12.2827 -1.89992 11.476 -1.96236L11.3216 0.0316736ZM19.5882 9.10087C18.6564 10.0295 17.3768 10.6 15.96 10.6V14.6C18.4777 14.6 20.7608 13.5794 22.4118 11.9342L19.5882 9.10087ZM15.96 10.6C13.1213 10.6 10.82 8.29877 10.82 5.46002H6.82002C6.82002 10.5079 10.9121 14.6 15.96 14.6V10.6ZM10.82 5.46002C10.82 3.89639 11.5158 2.49738 12.6216 1.55158L10.0217 -1.48823C8.06524 0.185082 6.82002 2.6782 6.82002 5.46002H10.82ZM10.5 2C10.7249 2 10.9475 2.00869 11.1673 2.02571L11.476 -1.96236C11.1536 -1.98732 10.8281 -2 10.5 -2V2ZM2 10.5C2 5.80558 5.80558 2 10.5 2V-2C3.59644 -2 -2 3.59644 -2 10.5H2ZM10.5 19C5.80558 19 2 15.1944 2 10.5H-2C-2 17.4036 3.59644 23 10.5 23V19ZM19 10.5143C18.9923 15.2021 15.1897 19 10.5 19V23C17.3966 23 22.9887 17.4148 23 10.5208L19 10.5143Z"
                fill="#050109" mask="url(#path-1-inside-1_693_1444)" />
        </g>
    </symbol>

    <symbol id="dairy-page" height="25" viewBox="0 0 36 25" fill="none"
        xmlns="http://www.w3.org/2000/svg">
        <path
            d="M18 2.49997C11.2474 0.57068 8.21702 0.502507 1.72745 2.29545C1.29709 2.41435 1 2.8078 1 3.25428V22.1743C1 22.8386 1.63592 23.3176 2.27769 23.1457C8.39398 21.508 11.4411 21.626 18 23.5M18 2.49997V23.5M18 2.49997C24.7526 0.570683 27.783 0.502555 34.2726 2.2955C34.7029 2.4144 35 2.80785 35 3.25433V22.1743C35 22.8387 34.3641 23.3176 33.7223 23.1458C27.606 21.508 24.5589 21.626 18 23.5M20.5 5.50006C25.5 4.50006 27.5 4.50006 33 5.50006M20.5 9.50006C25.5 8.50006 27.5 8.50006 33 9.50006M20.5 13.5001C25.5 12.5001 27.5 12.5001 33 13.5001M20.5 17.5001C25.5 16.5001 27.5 16.5001 33 17.5001"
            stroke="#090910" stroke-width="2" stroke-linejoin="round" />
    </symbol>

    <symbol id="dashboard-page" width="18" height="19" viewBox="0 0 18 19" fill="none"
        xmlns="http://www.w3.org/2000/svg">
        <rect y="7" width="4" height="12" fill="#050109" />
        <rect x="7" width="4" height="19" fill="#050109" />
        <rect x="14" y="2" width="4" height="17" fill="#050109" />
    </symbol>
</svg>