<svg width="28" height="28" viewBox="0 0 28 28" fill="none" xmlns="http://www.w3.org/2000/svg">
<circle cx="14" cy="14" r="13" stroke="#B8B8EE" stroke-opacity="0.7" stroke-width="2" stroke-linecap="round" stroke-linejoin="round"/>
<path d="M12 13.2084C11.6878 13.7604 11.1805 14.2251 10.5422 14.5436C9.90388 14.8621 9.16327 15.0202 8.414 14.9979C7.66473 14.9756 6.94046 14.7739 6.33277 14.4183C5.72509 14.0626 5.26128 13.5691 5 13" stroke="#B8B8EE" stroke-opacity="0.7" stroke-linecap="round"/>
<path d="M23 13.2084C22.6878 13.7604 22.1805 14.2251 21.5422 14.5436C20.9039 14.8621 20.1633 15.0202 19.414 14.9979C18.6647 14.9756 17.9405 14.7739 17.3328 14.4183C16.7251 14.0626 16.2613 13.5691 16 13" stroke="#B8B8EE" stroke-opacity="0.7" stroke-linecap="round"/>
<path d="M17 18.8958C16.7324 18.6198 16.2976 18.3875 15.7504 18.2282C15.2033 18.0689 14.5685 17.9899 13.9263 18.001C13.2841 18.0122 12.6633 18.1131 12.1424 18.2909C11.6215 18.4687 11.224 18.7155 11 19" stroke="#B8B8EE" stroke-opacity="0.7" stroke-linecap="round"/>
</svg>
