<svg width="29" height="28" viewBox="0 0 29 28" fill="none" xmlns="http://www.w3.org/2000/svg">
<circle cx="14.1833" cy="14" r="13" stroke="#B8B8EE" stroke-opacity="0.7" stroke-width="2" stroke-linecap="round" stroke-linejoin="round"/>
<path d="M7.18335 10L12.1833 13" stroke="#B8B8EE" stroke-opacity="0.7" stroke-linecap="round" stroke-linejoin="round"/>
<path d="M16.1833 13L21.1833 10" stroke="#B8B8EE" stroke-opacity="0.7" stroke-linecap="round" stroke-linejoin="round"/>
<path d="M25.2651 1.20711C25.3225 1.26455 25.3681 1.33273 25.3992 1.40777C25.4303 1.48281 25.4463 1.56324 25.4463 1.64447C25.4463 1.72569 25.4303 1.80612 25.3992 1.88116C25.3681 1.95621 25.3225 2.02439 25.2651 2.08183C25.2077 2.13926 25.1395 2.18482 25.0644 2.2159C24.9894 2.24699 24.909 2.26298 24.8277 2.26298C24.7465 2.26298 24.6661 2.24699 24.591 2.2159C24.516 2.18482 24.4478 2.13926 24.3904 2.08183" stroke="#B8B8EE" stroke-opacity="0.7" stroke-linecap="round"/>
<path d="M26.7583 4.44975C26.7009 4.39231 26.6553 4.32413 26.6243 4.24909C26.5932 4.17405 26.5772 4.09362 26.5772 4.01239C26.5772 3.93117 26.5932 3.85074 26.6243 3.7757C26.6553 3.70065 26.7009 3.63247 26.7583 3.57504C26.8158 3.5176 26.884 3.47204 26.959 3.44096C27.034 3.40987 27.1145 3.39388 27.1957 3.39388C27.2769 3.39388 27.3574 3.40987 27.4324 3.44096C27.5074 3.47204 27.5756 3.5176 27.6331 3.57504" stroke="#B8B8EE" stroke-opacity="0.7" stroke-linecap="round"/>
<path d="M27.6331 2.08181C27.5757 2.13924 27.5075 2.1848 27.4325 2.21588C27.3574 2.24697 27.277 2.26296 27.1958 2.26296C27.1146 2.26296 27.0341 2.24697 26.9591 2.21588C26.884 2.1848 26.8159 2.13924 26.7584 2.08181C26.701 2.02437 26.6554 1.95619 26.6243 1.88114C26.5933 1.8061 26.5773 1.72567 26.5773 1.64445C26.5773 1.56322 26.5933 1.48279 26.6243 1.40775C26.6554 1.33271 26.701 1.26453 26.7584 1.20709" stroke="#B8B8EE" stroke-opacity="0.7" stroke-linecap="round"/>
<path d="M24.3904 3.57506C24.4479 3.51762 24.516 3.47206 24.5911 3.44098C24.6661 3.40989 24.7466 3.3939 24.8278 3.3939C24.909 3.3939 24.9894 3.40989 25.0645 3.44098C25.1395 3.47206 25.2077 3.51762 25.2651 3.57506C25.3226 3.63249 25.3681 3.70067 25.3992 3.77572C25.4303 3.85076 25.4463 3.93119 25.4463 4.01241C25.4463 4.09364 25.4303 4.17407 25.3992 4.24911C25.3681 4.32415 25.3226 4.39233 25.2651 4.44977" stroke="#B8B8EE" stroke-opacity="0.7" stroke-linecap="round"/>
</svg>
