<svg width="28" height="28" viewBox="0 0 28 28" fill="none" xmlns="http://www.w3.org/2000/svg">
<circle cx="14" cy="14" r="13" stroke="#B8B8EE" stroke-opacity="0.7" stroke-width="2" stroke-linecap="round" stroke-linejoin="round"/>
<path fill-rule="evenodd" clip-rule="evenodd" d="M16.4981 12.6537C16.223 12.6778 16.0195 12.9203 16.0436 13.1954C16.0676 13.4705 16.3102 13.6739 16.5853 13.6499L18.1213 13.5155C18.2773 14.1143 18.6159 14.6547 19.0962 15.0577C19.7057 15.5692 20.4934 15.8175 21.286 15.7482C22.0786 15.6788 22.8113 15.2974 23.3227 14.6879C23.8341 14.0784 24.0825 13.2907 24.0131 12.4981C23.9891 12.223 23.7466 12.0195 23.4715 12.0436L16.4981 12.6537ZM22.9973 13.0889L19.139 13.4265C19.2571 13.7604 19.463 14.0601 19.739 14.2917C20.1453 14.6326 20.6704 14.7982 21.1989 14.752C21.7273 14.7057 22.2157 14.4515 22.5566 14.0452C22.7882 13.7692 22.9389 13.4383 22.9973 13.0889Z" fill="#B8B8EE" fill-opacity="0.7"/>
<path fill-rule="evenodd" clip-rule="evenodd" d="M4.80315 12.0436C4.52806 12.0195 4.28554 12.223 4.26148 12.4981C4.23741 12.7732 4.4409 13.0157 4.716 13.0398L6.25207 13.1742C6.30164 13.791 6.5413 14.3819 6.94432 14.8622C7.45575 15.4717 8.18836 15.8531 8.98098 15.9225C9.7736 15.9918 10.5613 15.7434 11.1708 15.232C11.7803 14.7206 12.1617 13.988 12.231 13.1953C12.2551 12.9203 12.0516 12.6777 11.7765 12.6537L4.80315 12.0436ZM11.128 13.6008L7.26974 13.2632C7.32809 13.6126 7.47876 13.9434 7.71036 14.2195C8.05132 14.6258 8.53972 14.88 9.06814 14.9263C9.59655 14.9725 10.1217 14.8069 10.528 14.466C10.804 14.2344 11.0099 13.9347 11.128 13.6008Z" fill="#B8B8EE" fill-opacity="0.7"/>
<path d="M12 20C12.6667 18.4155 15.6667 18.9437 18 20" stroke="#B8B8EE" stroke-opacity="0.7" stroke-linecap="round"/>
</svg>
