<svg width="28" height="28" viewBox="0 0 28 28" fill="none" xmlns="http://www.w3.org/2000/svg">
<circle cx="14" cy="14" r="13" stroke="#B8B8EE" stroke-opacity="0.7" stroke-width="2" stroke-linecap="round" stroke-linejoin="round"/>
<path d="M12 11.7916C11.6878 11.2396 11.1805 10.7749 10.5422 10.4564C9.90388 10.1379 9.16327 9.97976 8.414 10.0021C7.66473 10.0244 6.94046 10.2261 6.33277 10.5817C5.72509 10.9374 5.26128 11.4309 5 12" stroke="#B8B8EE" stroke-opacity="0.7" stroke-linecap="round"/>
<path d="M19 17.2084C18.554 17.7604 17.8293 18.2251 16.9174 18.5436C16.0055 18.8621 14.9475 19.0202 13.8771 18.9979C12.8068 18.9756 11.7721 18.7739 10.904 18.4183C10.0358 18.0626 9.37325 17.5691 9 17" stroke="#B8B8EE" stroke-opacity="0.7" stroke-linecap="round"/>
<path d="M23 11.7916C22.6878 11.2396 22.1805 10.7749 21.5422 10.4564C20.9039 10.1379 20.1633 9.97976 19.414 10.0021C18.6647 10.0244 17.9405 10.2261 17.3328 10.5817C16.7251 10.9374 16.2613 11.4309 16 12" stroke="#B8B8EE" stroke-opacity="0.7" stroke-linecap="round"/>
</svg>
